<svg xmlns="http://www.w3.org/2000/svg" width="512" height="512" viewBox="0 0 512 512" shape-rendering="crispEdges">
  <rect width="512" height="512" fill="#111827"/>
  <rect x="64" y="64" width="96" height="96" fill="#22c55e"/>
  <rect x="160" y="64" width="96" height="96" fill="#14b8a6"/>
  <rect x="256" y="64" width="96" height="96" fill="#38bdf8"/>
  <rect x="352" y="64" width="96" height="96" fill="#f8fafc"/>
  <rect x="64" y="160" width="96" height="96" fill="#a3e635"/>
  <rect x="160" y="160" width="96" height="96" fill="#f97316"/>
  <rect x="256" y="160" width="96" height="96" fill="#facc15"/>
  <rect x="352" y="160" width="96" height="96" fill="#22c55e"/>
  <rect x="64" y="256" width="96" height="96" fill="#38bdf8"/>
  <rect x="160" y="256" width="96" height="96" fill="#fb7185"/>
  <rect x="256" y="256" width="96" height="96" fill="#c084fc"/>
  <rect x="352" y="256" width="96" height="96" fill="#14b8a6"/>
  <rect x="64" y="352" width="96" height="96" fill="#f8fafc"/>
  <rect x="160" y="352" width="96" height="96" fill="#22c55e"/>
  <rect x="256" y="352" width="96" height="96" fill="#f97316"/>
  <rect x="352" y="352" width="96" height="96" fill="#38bdf8"/>
  <rect x="56" y="456" width="400" height="24" fill="#f97316"/>
  <path d="M104 104h304v48H104zM104 104h48v304h-48zM360 104h48v304h-48zM104 360h304v48H104z" fill="#111827" opacity="0.45"/>
  <path d="M216 216h80v80h-80z" fill="#111827"/>
  <path d="M232 232h48v48h-48z" fill="#f8fafc"/>
</svg>
